<?xml version="1.0" encoding="UTF-8"?>
<svg version="1.1" xmlns="http://www.w3.org/2000/svg" width="1024" height="1024">
<path d="M0 0 C-0.33 0.66 -0.66 1.32 -1 2 C-2.32837891 1.566875 -2.32837891 1.566875 -3.68359375 1.125 C-17.11106937 -2.89905097 -31.05533935 -4.72842972 -44 2 C-48.69621765 4.83729817 -50.34932755 7.78735015 -52 13 C-53.4143757 24.71911296 -47.91250114 35.86900534 -41 45 C-36.6081369 50.26571579 -31.91016941 55.21573237 -27 60 C-26.47664063 60.56847656 -25.95328125 61.13695312 -25.4140625 61.72265625 C-19.8589326 67.61765696 -13.52756006 72.16896501 -6.87207031 76.71337891 C-5.04322651 77.97029164 -3.23579496 79.25367214 -1.4296875 80.54296875 C7.51190034 86.82611546 16.88066619 91.53201786 26.83740234 96.00097656 C28.9144467 96.9604782 30.94137718 97.98678008 32.97265625 99.0390625 C51.10038943 108.18696791 75.84337727 116.08670702 96.3125 112.3125 C101.39375779 110.50391672 104.02819902 108.45770148 107 104 C107.66 104 108.32 104 109 104 C106.28590115 114.28500617 100.68482359 121.83317214 92 128 C65.53291441 143.25992904 30.89748983 136.92586503 2.98828125 129.65234375 C-34.84635748 119.36796414 -68.09297869 101.12330488 -98 76 C-98.83660156 75.30777344 -99.67320313 74.61554688 -100.53515625 73.90234375 C-105.17835443 69.97486013 -109.09786923 65.65377071 -113 61 C-113.7734375 60.12601562 -114.546875 59.25203125 -115.34375 58.3515625 C-127.03470694 44.89252873 -137.47888293 29.2516168 -137.20703125 10.83984375 C-136.59268165 2.41282192 -133.15496808 -3.32495146 -127 -9 C-94.12915371 -36.31876477 -33.59844714 -16.74831683 0 0 Z " fill="#FEF01F" transform="translate(220,446)"/>
<path d="M0 0 C8.34223422 0.148087 17.22530346 2.20852158 23.25 8.25 C24.78568341 10.19367094 25.99959116 12.0992968 27.25 14.25 C28.2090625 13.198125 28.2090625 13.198125 29.1875 12.125 C37.3905669 4.05941467 46.74840448 0.31807912 58.25 -0.125 C67.59766742 0.23510276 77.48479032 2.43131041 84.25 9.25 C91.91813819 20.60660972 91.39728386 32.40066935 91.34765625 45.56640625 C91.34578761 47.03327893 91.34436581 48.50015223 91.34336853 49.96702576 C91.33957848 53.79905975 91.32977882 57.63105492 91.31866455 61.46307373 C91.3083743 65.38488235 91.30385471 69.30669735 91.29882812 73.22851562 C91.28815286 80.90236131 91.27111943 88.57617518 91.25 96.25 C88.7711787 96.44389096 86.29219069 96.63040123 83.8125 96.8125 C82.75192383 96.89661133 82.75192383 96.89661133 81.66992188 96.98242188 C79.86572163 97.11190993 78.05768048 97.18521608 76.25 97.25 C74.41629833 95.41629833 75.10580778 92.48121591 75.09228516 90.02124023 C75.08720444 89.37070175 75.08212372 88.72016327 75.07688904 88.0499115 C75.06616171 86.63177794 75.05755086 85.2136272 75.05076981 83.79546928 C75.03899539 81.54577147 75.01954234 79.2962669 74.99765015 77.04664612 C74.93601508 70.64826981 74.88215024 64.2499084 74.84863281 57.85131836 C74.827592 53.94018355 74.79220375 50.02939297 74.74787521 46.11845589 C74.73377735 44.63187805 74.7250069 43.14523921 74.72182083 41.65859795 C74.75566346 30.60030921 74.75566346 30.60030921 71.25 20.25 C64.4531888 14.84740648 55.48882377 15.64570611 47.25 16.25 C42.08839934 17.49076939 39.11357354 19.19212241 35.75 23.3125 C33.51105031 27.6971098 33.10874915 30.86238644 33.04467773 35.7409668 C33.03477814 36.3948941 33.02487854 37.04882141 33.01467896 37.7225647 C32.98312217 39.8814127 32.95832968 42.04028271 32.93359375 44.19921875 C32.91301919 45.69709338 32.89202258 47.19496228 32.87062073 48.69282532 C32.81545191 52.6333857 32.76601979 56.57399803 32.71777344 60.51464844 C32.66752049 64.53650531 32.61185423 68.55828684 32.55664062 72.58007812 C32.44912254 80.46998836 32.34766352 88.35996166 32.25 96.25 C27.65456709 98.54771645 21.07752346 97.49581251 16.25 96.25 C15.44769303 92.73207429 15.13171128 89.50498926 15.15234375 85.89990234 C15.15564697 84.854664 15.1589502 83.80942566 15.16235352 82.73251343 C15.17065186 81.61164337 15.1789502 80.49077332 15.1875 79.3359375 C15.19128662 78.17051422 15.19507324 77.00509094 15.19897461 75.80435181 C15.21527452 70.82834534 15.24328491 65.85242168 15.27050781 60.87646484 C15.28871232 57.23795967 15.30073586 53.59946832 15.3125 49.9609375 C15.32079834 48.85221283 15.32909668 47.74348816 15.33764648 46.60116577 C15.90420901 32.04633211 15.90420901 32.04633211 10.25 19.25 C4.39758226 15.31548302 -2.98746328 15.58468305 -9.75 16.25 C-15.91369161 17.57962578 -21.36609615 20.56597061 -24.87213135 25.9841156 C-28.42485998 33.11063202 -28.35455119 40.08827639 -28.359375 47.91015625 C-28.37438272 49.30978788 -28.39111525 50.70940198 -28.40948486 52.10899353 C-28.45288092 55.76346726 -28.47309503 59.41770223 -28.48822021 63.0723877 C-28.50789245 66.81337441 -28.54985044 70.55410699 -28.58984375 74.29492188 C-28.66484445 81.61321246 -28.71531717 88.93139537 -28.75 96.25 C-31.2288213 96.44389096 -33.70780931 96.63040123 -36.1875 96.8125 C-37.24807617 96.89661133 -37.24807617 96.89661133 -38.33007812 96.98242188 C-40.13427837 97.11190993 -41.94231952 97.18521608 -43.75 97.25 C-45.63885195 95.36114805 -44.87010635 92.60948241 -44.87442017 90.09675598 C-44.87082489 89.2120311 -44.86722961 88.32730621 -44.86352539 87.41577148 C-44.86367142 86.48903625 -44.86381744 85.56230103 -44.8639679 84.60748291 C-44.86326838 81.52866313 -44.85547421 78.44990303 -44.84765625 75.37109375 C-44.84579221 73.24259982 -44.84436824 71.11410547 -44.84336853 68.98561096 C-44.83954228 63.3713768 -44.82971108 57.75716832 -44.81866455 52.14294434 C-44.80845273 46.41886747 -44.8038714 40.69478647 -44.79882812 34.97070312 C-44.78808891 23.73045744 -44.7710112 12.49023085 -44.75 1.25 C-39.8 1.25 -34.85 1.25 -29.75 1.25 C-28.14274365 4.46451269 -28.69251815 7.68612536 -28.75 11.25 C-28.09 11.25 -27.43 11.25 -26.75 11.25 C-26.09 10.528125 -25.43 9.80625 -24.75 9.0625 C-17.84812915 1.91631514 -9.41746324 0.62783088 0 0 Z " fill="#F31D27" transform="translate(497.75,460.75)"/>
<path d="M0 0 C0 0.99 0 1.98 0 3 C-0.70125 2.7834375 -1.4025 2.566875 -2.125 2.34375 C-10.32170581 -0.06180496 -17.11171132 -1.42248101 -25.234375 2.03125 C-28.11000664 3.60903019 -29.45802038 5.10878821 -31 8 C-31.8680101 14.51007578 -30.44338154 19.4333537 -27 25 C-24.19912737 28.53823399 -21.14662668 31.76918264 -18 35 C-17.39414063 35.66773438 -16.78828125 36.33546875 -16.1640625 37.0234375 C4.67646895 59.32007595 40.63654197 76.83719402 71.00390625 78.96484375 C78.25375083 79.04991363 84.41370552 77.72686456 90 73 C90.33 72.01 90.66 71.02 91 70 C91.66 70 92.32 70 93 70 C92.34 69.01 91.68 68.02 91 67 C90.236875 67.474375 89.47375 67.94875 88.6875 68.4375 C79.86347392 73.56774772 68.03894721 71.30748177 58.55859375 69.03515625 C52.15987794 67.17383936 46.06396442 64.73602868 40 62 C39.36868164 61.71527832 38.73736328 61.43055664 38.08691406 61.13720703 C27.12000993 56.09933766 17.04545801 49.80615141 6.93603516 43.24365234 C4.6538461 41.77764086 2.33899706 40.37339907 0 39 C0.33 38.01 0.66 37.02 1 36 C1.52730713 36.30180176 2.05461426 36.60360352 2.59790039 36.91455078 C20.21280182 46.94252397 39.06613667 57.56432751 60 57 C63.28673104 56.09317142 63.28673104 56.09317142 66 55 C67.91470261 48.93677506 65.75339713 44.40749142 63 39 C61.71937515 37.2925002 60.40549561 35.60628069 59 34 C59 33.34 59 32.68 59 32 C58.34 32 57.68 32 57 32 C55.85716477 30.89179614 54.72140497 29.77559363 53.6171875 28.62890625 C48.52878309 23.50362935 43.15579246 18.78817998 37 15 C37.99 14.505 37.99 14.505 39 14 C59.35413052 22.14165221 80.64087381 40.75313329 90.25 60.4375 C91.67163743 63.84854772 91.67163743 63.84854772 93.4765625 65.41015625 C95.41260724 67.43059268 96.13870622 69.39059284 97.125 72 C97.45757812 72.86625 97.79015625 73.7325 98.1328125 74.625 C100.5424056 81.22424596 101.139122 87.70254158 98.8125 94.4375 C95.34052469 99.34615475 91.71874141 101.41070607 86 103 C64.79124064 105.0425009 43.7860131 97.07666151 25.03125 87.84765625 C22.90540362 86.8074403 22.90540362 86.8074403 20 87 C19.59523438 86.59007812 19.19046875 86.18015625 18.7734375 85.7578125 C16.12929187 83.1369633 12.87691887 81.62236797 9.625 79.875 C-4.14950579 72.28601525 -16.93281476 63.22732136 -28 52 C-28.65742188 51.37738281 -29.31484375 50.75476563 -29.9921875 50.11328125 C-38.84760683 41.64367894 -47.41150099 30.53692297 -49 18 C-49.09867443 12.28784711 -47.60263939 7.46248384 -44 3 C-31.99241686 -8.26269585 -14.09764907 -4.93417717 0 0 Z " fill="#F42129" transform="translate(230,452)"/>
<path d="M0 0 C6.2673441 5.46903221 9.69076085 11.79956628 11 20 C11.08610318 22.3604683 11.11772083 24.72317063 11.11352539 27.08520508 C11.11367142 27.77843872 11.11381744 28.47167236 11.1139679 29.18591309 C11.11327451 31.46381829 11.10550915 33.74164043 11.09765625 36.01953125 C11.09579003 37.60422216 11.09436709 39.18891365 11.09336853 40.77360535 C11.08955943 44.9344951 11.07974292 49.09534968 11.06866455 53.25622559 C11.05841582 57.50609868 11.0538635 61.75597748 11.04882812 66.00585938 C11.03811916 74.33725749 11.02053542 82.66862031 11 91 C6.05 91 1.1 91 -4 91 C-4.97608217 88.07175348 -5.08226668 86.04386724 -5 83 C-5.78503906 83.48210937 -6.57007813 83.96421875 -7.37890625 84.4609375 C-18.10158383 90.90770071 -18.10158383 90.90770071 -24 92 C-25.03060547 92.19722656 -25.03060547 92.19722656 -26.08203125 92.3984375 C-38.61026286 94.26832282 -51.98227485 91.81063509 -62.8125 85.3125 C-69.16273167 78.59939795 -72.00890173 70.37363932 -71.99609375 61.203125 C-71.418271 52.30219583 -69.63051093 45.68418616 -62.94921875 39.53515625 C-54.5353208 32.90857931 -44.55162874 31.617077 -34.125 31.6875 C-33.24875977 31.69313965 -32.37251953 31.6987793 -31.46972656 31.70458984 C-20.42873793 31.91132693 -13.63549689 34.19974597 -5 41 C-5.08120706 37.60321197 -5.19402019 34.20817618 -5.3125 30.8125 C-5.33505859 29.85279297 -5.35761719 28.89308594 -5.38085938 27.90429688 C-5.63025005 21.35212376 -6.43354113 17.56645887 -11.1875 12.8125 C-17.05981359 9.02812013 -23.68887075 8.63583628 -30.5 8.6875 C-31.2432251 8.69096436 -31.9864502 8.69442871 -32.75219727 8.69799805 C-38.08916559 8.80420929 -42.25508469 9.38545483 -47 12 C-48.79553415 14.69330122 -49.42696461 16.1460601 -50.125 19.1875 C-50.558125 21.0746875 -50.558125 21.0746875 -51 23 C-53.47923801 23.02685095 -55.9581884 23.04676547 -58.4375 23.0625 C-59.14455078 23.07087891 -59.85160156 23.07925781 -60.58007812 23.08789062 C-62.38693559 23.09653588 -64.19387603 23.05220011 -66 23 C-67 22 -67 22 -67.3125 18.5 C-67.20792168 12.66452993 -65.28609643 7.60298108 -61.421875 3.203125 C-47.42442157 -9.53329659 -15.87738169 -9.93068707 0 0 Z M-51 49 C-54.79861799 53.16622618 -54.9914877 58.56064278 -55 64 C-54.08560645 69.57780065 -52.41471125 72.468231 -48 76 C-42.57054577 78.80974256 -38.2597375 79.48632864 -32.1875 79.375 C-31.39504883 79.36557373 -30.60259766 79.35614746 -29.78613281 79.34643555 C-20.72810337 79.1135837 -13.48097188 77.64299618 -7 71 C-4.25662563 66.52198342 -4.49152018 62.1009404 -5 57 C-6.74445091 51.76664727 -9.18163481 49.59450433 -14 47 C-25.1625939 42.99831539 -41.03633476 41.46962061 -51 49 Z " fill="#F41D28" transform="translate(784,467)"/>
<path d="M0 0 C8.91299394 9.32755179 10.01612868 19.88267063 9.875 32.25 C9.8740332 33.90032227 9.8740332 33.90032227 9.87304688 35.58398438 C9.82808618 43.67191382 9.82808618 43.67191382 8.6875 44.8125 C6.66255769 44.90659479 4.6343013 44.92993122 2.60717773 44.92602539 C0.65526772 44.92591209 0.65526772 44.92591209 -1.33607483 44.92579651 C-2.76701902 44.92068909 -4.19796282 44.91547308 -5.62890625 44.91015625 C-7.0847926 44.90829203 -8.54067957 44.90686815 -9.99656677 44.90586853 C-13.83529379 44.90204365 -17.67398319 44.89221364 -21.51269531 44.88116455 C-25.42707816 44.87094978 -29.34146706 44.86637077 -33.25585938 44.86132812 C-40.94142343 44.85059134 -48.62695645 44.83351529 -56.3125 44.8125 C-56.34474278 47.04026863 -56.36767669 49.26817318 -56.38671875 51.49609375 C-56.40049561 52.73673584 -56.41427246 53.97737793 -56.4284668 55.25561523 C-56.22918286 61.36796818 -54.80714658 65.79033109 -51.1875 70.6875 C-42.45308812 77.14336965 -31.75044809 76.70115648 -21.3125 75.8125 C-16.86832633 75.02012795 -13.6112763 73.67835087 -9.875 71.1875 C-7.87610581 68.14918084 -7.32954699 65.29302064 -6.70703125 61.73828125 C-6.3125 59.8125 -6.3125 59.8125 -5.3125 58.8125 C-2.61595146 58.73930379 0.05441458 58.72007463 2.75 58.75 C3.50861328 58.75451172 4.26722656 58.75902344 5.04882812 58.76367188 C6.92841871 58.7754932 8.80796899 58.79342922 10.6875 58.8125 C9.42443518 68.78406435 7.94468699 77.02537608 -0.25390625 83.49609375 C-9.69203896 89.53148412 -19.61628468 90.01113143 -30.5 90.0625 C-31.57314453 90.083125 -32.64628906 90.10375 -33.75195312 90.125 C-44.9676185 90.17928029 -55.42281977 88.00520099 -64.3125 80.8125 C-72.03180942 71.89454005 -73.44959063 61.88606272 -73.515625 50.45703125 C-73.52132507 49.6741423 -73.52702515 48.89125336 -73.53289795 48.0846405 C-73.54229485 46.43493986 -73.54886065 44.7852209 -73.55273438 43.13549805 C-73.56240574 40.64923195 -73.59346525 38.16380594 -73.625 35.67773438 C-73.70840616 23.25402521 -73.35737894 10.36828214 -64.3125 0.8125 C-47.24632303 -12.28283381 -17.63114775 -11.64321078 0 0 Z M-54.3125 12.8125 C-56.25848245 16.73921459 -56.67393443 20.27616813 -56.9375 24.625 C-57.01226563 25.78644531 -57.08703125 26.94789063 -57.1640625 28.14453125 C-57.21304688 29.02496094 -57.26203125 29.90539062 -57.3125 30.8125 C-54.31622383 31.68024887 -51.65890117 31.93439893 -48.54394531 31.92602539 C-47.60327209 31.92594986 -46.66259888 31.92587433 -45.69342041 31.92579651 C-44.68599792 31.92063522 -43.67857544 31.91547394 -42.640625 31.91015625 C-41.08429352 31.90803383 -41.08429352 31.90803383 -39.496521 31.90586853 C-36.18515124 31.90027447 -32.87384929 31.88772303 -29.5625 31.875 C-27.31640723 31.86998423 -25.07031339 31.86542146 -22.82421875 31.86132812 C-17.3202894 31.85030699 -11.81639954 31.83357474 -6.3125 31.8125 C-6.26666037 29.90647698 -6.23408127 28.00013226 -6.20703125 26.09375 C-6.18745361 25.03220703 -6.16787598 23.97066406 -6.14770508 22.87695312 C-6.45360632 17.18854959 -8.72310705 13.44484951 -12.625 9.4375 C-18.7246236 5.7493555 -24.79995674 5.47239856 -31.75 5.5 C-32.55759766 5.48388672 -33.36519531 5.46777344 -34.19726562 5.45117188 C-41.89367436 5.4449701 -48.69493087 7.19493087 -54.3125 12.8125 Z " fill="#F31E27" transform="translate(933.3125,469.1875)"/>
<path d="M0 0 C2.77757556 2.5315745 4.06835463 4.82688145 5.67578125 8.2109375 C6.1759375 9.2421875 6.67609375 10.2734375 7.19140625 11.3359375 C11.90392404 22.31192831 9.42578125 30.2573355 9.42578125 44.2109375 C-12.68421875 44.2109375 -34.79421875 44.2109375 -57.57421875 44.2109375 C-57.07998118 58.90210608 -57.07998118 58.90210608 -50.44921875 70.3984375 C-40.80812052 76.47652117 -29.53849987 76.46385245 -18.51171875 74.5234375 C-14.43128378 73.38614112 -11.01700635 71.76550664 -8.57421875 68.2109375 C-7.2148596 64.55508524 -6.40529178 61.04310757 -5.57421875 57.2109375 C-0.29421875 57.5409375 4.98578125 57.8709375 10.42578125 58.2109375 C9.12982103 67.18296978 7.95623586 74.50862882 1.42578125 81.2109375 C-12.27717225 91.03624671 -30.27811177 90.72741524 -46.375 88.7421875 C-54.873782 86.89031282 -62.75997787 83.20869172 -68.01171875 76.0859375 C-74.07618946 65.38365789 -74.07870831 53.83740434 -74.02026367 41.875 C-74.01173294 39.21536262 -74.04064079 36.55786526 -74.07226562 33.8984375 C-74.13015145 20.36531709 -72.89609467 9.34261596 -62.98828125 -0.7265625 C-46.98672121 -14.39779826 -16.21851727 -11.27174645 0 0 Z M-54.01171875 11.5234375 C-57.93885432 18.27811068 -57.57421875 23.13776601 -57.57421875 31.2109375 C-40.74421875 31.2109375 -23.91421875 31.2109375 -6.57421875 31.2109375 C-5.03451023 25.05210342 -5.82271141 18.70174656 -8.6953125 12.9765625 C-11.79726891 8.86405371 -15.36633516 6.85590159 -20.33203125 5.6484375 C-31.98610874 4.07583909 -44.94374644 2.92048941 -54.01171875 11.5234375 Z " fill="#F31E26" transform="translate(419.57421875,469.7890625)"/>
<path d="M0 0 C6.09928396 6.27272331 8.68174204 13.48244728 8.8359375 22.1328125 C8.6484375 25.6953125 8.6484375 25.6953125 7.6484375 26.6953125 C5.33850368 26.82088412 3.02425214 26.87106979 0.7109375 26.8828125 C-0.55621094 26.89699219 -1.82335937 26.91117187 -3.12890625 26.92578125 C-6.3515625 26.6953125 -6.3515625 26.6953125 -8.3515625 24.6953125 C-8.94921875 22.453125 -8.94921875 22.453125 -9.4140625 19.8203125 C-9.7227089 18.11127873 -10.03504591 16.40290621 -10.3515625 14.6953125 C-10.50431641 13.60863281 -10.50431641 13.60863281 -10.66015625 12.5 C-11.20729057 10.53765729 -11.20729057 10.53765729 -13.14453125 9.546875 C-13.87285156 9.26585937 -14.60117187 8.98484375 -15.3515625 8.6953125 C-16.02832031 8.41429687 -16.70507812 8.13328125 -17.40234375 7.84375 C-27.73496912 4.31031335 -39.05074177 4.13166554 -49.171875 8.44140625 C-53.85014575 11.13266953 -55.01241556 14.49288244 -56.42578125 19.50390625 C-57.80706965 25.97816196 -57.64208222 32.47910512 -57.6015625 39.0703125 C-57.60929688 40.32070313 -57.61703125 41.57109375 -57.625 42.859375 C-57.8583655 56.46162732 -57.8583655 56.46162732 -52.7890625 68.6953125 C-46.67092041 74.75532497 -39.48472873 74.95755109 -31.2890625 75.0703125 C-30.53334961 75.08441162 -29.77763672 75.09851074 -28.99902344 75.11303711 C-22.65873995 75.05856969 -17.12818815 73.81431629 -11.9765625 69.8828125 C-7.94845934 64.46036594 -7.87983074 58.2106208 -7.3515625 51.6953125 C-1.7415625 52.0253125 3.8684375 52.3553125 9.6484375 52.6953125 C7.58290779 73.35060961 7.58290779 73.35060961 -0.5390625 81.0703125 C-13.32541659 90.92529721 -31.94511202 90.07014514 -47.17578125 88.234375 C-55.86514651 86.30340494 -63.6729459 82.62550153 -68.8515625 75.1953125 C-73.11700539 68.35076461 -73.72787186 61.88497422 -73.9765625 54.0078125 C-74.01305908 52.99557617 -74.04955566 51.98333984 -74.0871582 50.94042969 C-74.19024478 47.85893765 -74.27511804 44.7775731 -74.3515625 41.6953125 C-74.37492676 40.78765137 -74.39829102 39.87999023 -74.42236328 38.94482422 C-75.03685695 11.47850616 -75.03685695 11.47850616 -65.8203125 0.9453125 C-50.48915822 -13.5180406 -16.0139035 -13.4462734 0 0 Z " fill="#F31D27" transform="translate(686.3515625,470.3046875)"/>
<path d="M0 0 C5.28 0 10.56 0 16 0 C16 44.22 16 88.44 16 134 C10.72 134.33 5.44 134.66 0 135 C0 90.45 0 45.9 0 0 Z " fill="#F31E29" transform="translate(821,423)"/>
<path d="M0 0 C20.02199893 6.15382026 40.22291496 24.26706782 51 42 C51.45503906 42.74507813 51.91007812 43.49015625 52.37890625 44.2578125 C53.5625 46.375 53.5625 46.375 55 50 C53.90181429 53.14929447 53.13746342 53.91252328 50.25 55.75 C35.14619413 61.44128917 16.80024233 54.22659637 3 48 C2.36868164 47.71527832 1.73736328 47.43055664 1.08691406 47.13720703 C-9.87999007 42.09933766 -19.95454199 35.80615141 -30.06396484 29.24365234 C-32.3461539 27.77764086 -34.66100294 26.37339907 -37 25 C-36.505 23.515 -36.505 23.515 -36 22 C-35.47269287 22.30180176 -34.94538574 22.60360352 -34.40209961 22.91455078 C-16.78719818 32.94252397 2.06613667 43.56432751 23 43 C26.28673104 42.09317142 26.28673104 42.09317142 29 41 C30.91470261 34.93677506 28.75339713 30.40749142 26 25 C24.71937515 23.2925002 23.40549561 21.60628069 22 20 C22 19.34 22 18.68 22 18 C21.34 18 20.68 18 20 18 C18.85716477 16.89179614 17.72140497 15.77559363 16.6171875 14.62890625 C11.50292286 9.47758172 6.10444678 4.91310691 0 1 C0 0.67 0 0.34 0 0 Z " fill="#FDEF1D" transform="translate(267,466)"/>
<path d="M0 0 C3.63 0 7.26 0 11 0 C11 0.66 11 1.32 11 2 C8.36 2 5.72 2 3 2 C2.67 45.23 2.34 88.46 2 133 C5.96 133 9.92 133 14 133 C14 130.36 14 127.72 14 125 C14.33 125 14.66 125 15 125 C15.33 127.97 15.66 130.94 16 134 C10.72 134.33 5.44 134.66 0 135 C0 90.45 0 45.9 0 0 Z " fill="#F1151E" transform="translate(821,423)"/>
<path d="M0 0 C6.2673441 5.46903221 9.69076085 11.79956628 11 20 C11.08610318 22.3604683 11.11772083 24.72317063 11.11352539 27.08520508 C11.11367142 27.77843872 11.11381744 28.47167236 11.1139679 29.18591309 C11.11327451 31.46381829 11.10550915 33.74164043 11.09765625 36.01953125 C11.09579003 37.60422216 11.09436709 39.18891365 11.09336853 40.77360535 C11.08955943 44.9344951 11.07974292 49.09534968 11.06866455 53.25622559 C11.05841582 57.50609868 11.0538635 61.75597748 11.04882812 66.00585938 C11.03811916 74.33725569 11.02106211 82.66862346 11 91 C7.37 90.67 3.74 90.34 0 90 C0 89.67 0 89.34 0 89 C3.3 89 6.6 89 10 89 C9.78414402 80.28904605 9.55871274 71.57840627 9.32132149 62.86801243 C9.21136607 58.82267412 9.10461229 54.77730591 9.00537109 50.73168945 C8.90933454 46.82165027 8.80463233 42.91192747 8.6941185 39.00227165 C8.65360772 37.51655986 8.61613001 36.03076192 8.58185196 34.54489326 C8.35972052 18.26500056 8.35972052 18.26500056 0.59375 4.40625 C-10.61795576 -5.99005898 -31.92626212 -3.38642339 -46 -3 C-37.62265931 -11.37734069 -8.95354519 -5.60009561 0 0 Z " fill="#F0131C" transform="translate(784,467)"/>
<path d="M0 0 C2.73509897 0.08044409 4.50956538 0.59638873 6.6328125 2.34375 C13.89453415 10.0615218 12.13646201 20.77018776 12.09765625 30.78125 C12.09578803 32.20471141 12.09436603 33.62817346 12.09336853 35.05163574 C12.08957518 38.77353737 12.07977257 42.49539913 12.06866455 46.21728516 C12.05838152 50.02505962 12.05385623 53.83284061 12.04882812 57.640625 C12.03814702 65.09376805 12.02110946 72.54687841 12 80 C14.97 80 17.94 80 21 80 C21 80.33 21 80.66 21 81 C19.35492782 81.19406478 17.70890406 81.38007935 16.0625 81.5625 C14.68771484 81.71912109 14.68771484 81.71912109 13.28515625 81.87890625 C12.53105469 81.91886719 11.77695312 81.95882812 11 82 C9.16629833 80.16629833 9.85580778 77.23121591 9.84228516 74.77124023 C9.83720444 74.12070175 9.83212372 73.47016327 9.82688904 72.7999115 C9.81616171 71.38177794 9.80755086 69.9636272 9.80076981 68.54546928 C9.78899539 66.29577147 9.76954234 64.0462669 9.74765015 61.79664612 C9.68601508 55.39826981 9.63215024 48.9999084 9.59863281 42.60131836 C9.577592 38.69018355 9.54220375 34.77939297 9.49787521 30.86845589 C9.48377735 29.38187805 9.4750069 27.89523921 9.47182083 26.40859795 C9.52968023 15.3399684 9.52968023 15.3399684 6 5 C4.08229948 3.33766355 2.23760486 2.24311381 0 1 C0 0.67 0 0.34 0 0 Z " fill="#F1151E" transform="translate(563,476)"/>
<path d="M0 0 C0.33 0 0.66 0 1 0 C1.8513783 16.77396399 2.12994789 33.5396578 2.17724609 50.33300781 C2.18409323 52.53126325 2.19435829 54.72951065 2.20800781 56.92773438 C2.22585546 60.0482543 2.23016663 63.16849749 2.23046875 66.2890625 C2.23761398 67.23995758 2.24475922 68.19085266 2.25212097 69.17056274 C2.24908463 70.04191864 2.24604828 70.91327454 2.24291992 71.81103516 C2.24434494 72.57485504 2.24576996 73.33867493 2.24723816 74.12564087 C2 76 2 76 0 78 C-1.09699807 69.55491318 -1.1467527 61.16028858 -1.1328125 52.65625 C-1.13348745 51.19559717 -1.13445907 49.73494444 -1.13571167 48.27429199 C-1.13717592 45.23525914 -1.13507287 42.19625594 -1.13037109 39.15722656 C-1.12463365 35.25883926 -1.12798598 31.36052021 -1.13394356 27.46213531 C-1.13754905 24.45621216 -1.13641135 21.45030535 -1.13381577 18.44438171 C-1.13314856 17.00583386 -1.13396771 15.56728453 -1.13629532 14.1287384 C-1.13882597 12.12814359 -1.13428706 10.12754356 -1.12939453 8.12695312 C-1.12859894 6.98907349 -1.12780334 5.85119385 -1.12698364 4.67883301 C-1 2 -1 2 0 0 Z " fill="#F01A22" transform="translate(835,468)"/>
<path d="M0 0 C0 0.99 0 1.98 0 3 C-0.70125 2.7834375 -1.4025 2.566875 -2.125 2.34375 C-12.38056569 -0.66603558 -19.26718916 -0.86640542 -29 4 C-29.33 3.01 -29.66 2.02 -30 1 C-33.11764776 -0.40830694 -33.11764776 -0.40830694 -36.5 1.5 C-40 3 -40 3 -43 2 C-30.01023408 -7.50470677 -14.27790086 -4.9972653 0 0 Z " fill="#F4342A" transform="translate(230,452)"/>
<path d="M0 0 C0.66 0 1.32 0 2 0 C2.09796875 0.72445312 2.1959375 1.44890625 2.296875 2.1953125 C3.40766145 9.37712147 4.92222224 14.00771607 10.25 19.1875 C18.6536307 24.72625659 27.57631578 25.20063635 37.375 25.25 C38.39078125 25.270625 39.4065625 25.29125 40.453125 25.3125 C46.53789472 25.34410919 50.54342468 24.62030794 56 22 C56.99 22.33 57.98 22.66 59 23 C47.15540935 30.10675439 34.10276723 29.70046517 21 27 C13.08136312 24.69419003 7.42069656 21.73917272 3.25 14.4375 C0.57266666 9.41326371 -0.10806614 5.72750527 0 0 Z " fill="#EF141C" transform="translate(713,531)"/>
<path d="M0 0 C2.1087611 1.03512246 4.179241 2.10094098 6.2265625 3.25390625 C7.41378906 3.90166016 7.41378906 3.90166016 8.625 4.5625 C9.40101563 4.99691406 10.17703125 5.43132813 10.9765625 5.87890625 C24.37722472 10.84788565 44.76162724 9.61541908 58 5 C59.2375 4.608125 60.475 4.21625 61.75 3.8125 C62.4925 3.544375 63.235 3.27625 64 3 C59.30054586 8.67850709 53.01642926 9.96540016 46 11 C41.93913996 11.23356581 37.87947438 11.23080484 33.8125 11.25 C32.73935547 11.270625 31.66621094 11.29125 30.56054688 11.3125 C21.15160576 11.35803632 12.40350395 10.03183582 4.3125 4.9375 C3.48363281 4.43089844 2.65476562 3.92429687 1.80078125 3.40234375 C1.20652344 2.93957031 0.61226562 2.47679687 0 2 C0 1.34 0 0.68 0 0 Z " fill="#EF161E" transform="translate(869,548)"/>
<path d="M0 0 C0.33 0 0.66 0 1 0 C1 3.3 1 6.6 1 10 C-5.17937703 10.91114284 -11.16547861 11.13262362 -17.40625 11.09765625 C-18.3715564 11.0962413 -19.33686279 11.09482635 -20.3314209 11.09336853 C-23.38764665 11.0878108 -26.44379673 11.0752663 -29.5 11.0625 C-31.58333227 11.05747953 -33.6666657 11.05291758 -35.75 11.04882812 C-40.83336209 11.03785524 -45.91666826 11.02062011 -51 11 C-51 10.34 -51 9.68 -51 9 C-45.34428014 8.83108679 -39.6884032 8.67067895 -34.03222656 8.51782227 C-32.11191473 8.46476696 -30.19166333 8.40947115 -28.27148438 8.35180664 C-25.49622633 8.26886624 -22.7208439 8.19424243 -19.9453125 8.12109375 C-18.67749435 8.08054115 -18.67749435 8.08054115 -17.38406372 8.03916931 C-11.50326332 7.89506143 -5.84456877 8.32246802 0 9 C0 6.03 0 3.06 0 0 Z " fill="#EF131A" transform="translate(928,492)"/>
<path d="M0 0 C-0.22816406 0.52207031 -0.45632813 1.04414062 -0.69140625 1.58203125 C-3.53052034 8.85169109 -3.78502368 15.71594317 -0.75 23 C2.84741492 27.11133134 6.95725799 28.72719125 12.29003906 29.20532227 C13.5154541 29.26030884 13.5154541 29.26030884 14.765625 29.31640625 C16.09980469 29.37924805 16.09980469 29.37924805 17.4609375 29.44335938 C18.38132812 29.48267578 19.30171875 29.52199219 20.25 29.5625 C21.65378906 29.62727539 21.65378906 29.62727539 23.0859375 29.69335938 C25.39048641 29.7991805 27.69513839 29.90126557 30 30 C30 30.33 30 30.66 30 31 C20.64200032 33.14094458 9.79657575 33.16831204 1 29 C-2.22796055 26.78546892 -3.72464026 24.70165388 -5 21 C-5.88535415 14.86337003 -6.67404678 6.98638816 -3.58984375 1.484375 C-2 0 -2 0 0 0 Z " fill="#F0131C" transform="translate(733,516)"/>
<path d="M0 0 C0.99 0 1.98 0 3 0 C3 0.66 3 1.32 3 2 C1.52809695 2.80509102 0.04692933 3.59324574 -1.4375 4.375 C-2.26121094 4.81585937 -3.08492187 5.25671875 -3.93359375 5.7109375 C-11.69176086 8.97233259 -19.29129778 9.31510705 -27.625 9.25 C-28.62273438 9.25773438 -29.62046875 9.26546875 -30.6484375 9.2734375 C-36.15892884 9.25885948 -40.79547366 8.83689165 -46 7 C-46 6.67 -46 6.34 -46 6 C-44.80624756 6.01571045 -44.80624756 6.01571045 -43.58837891 6.03173828 C-39.93395223 6.07366997 -36.27957643 6.09944352 -32.625 6.125 C-31.37332031 6.14175781 -30.12164063 6.15851562 -28.83203125 6.17578125 C-18.82986553 6.22814861 -10.04454411 5.4260535 -1 1 C-0.67 0.67 -0.34 0.34 0 0 Z " fill="#F1141C" transform="translate(682,550)"/>
<path d="M0 0 C0.75466553 0.03456299 1.50933105 0.06912598 2.28686523 0.10473633 C7.75690142 0.44440142 7.75690142 0.44440142 10 2.6875 C8.70707031 2.66429687 7.41414062 2.64109375 6.08203125 2.6171875 C-6.88735685 2.45222708 -19.07715664 2.42372804 -31.07421875 7.98046875 C-31.70972656 8.21378906 -32.34523438 8.44710938 -33 8.6875 C-33.66 8.3575 -34.32 8.0275 -35 7.6875 C-29.81488532 4.07446796 -25.25436445 1.70077692 -19 0.6875 C-17.94619141 0.50380859 -17.94619141 0.50380859 -16.87109375 0.31640625 C-11.22616116 -0.45726471 -5.67208584 -0.28802865 0 0 Z " fill="#F1141C" transform="translate(659,461.3125)"/>
<path d="M0 0 C5.61 0.33 11.22 0.66 17 1 C16.04969087 10.50309125 15.09285584 17.73868805 10 26 C9.01 26 8.02 26 7 26 C7.66 24.68 8.32 23.36 9 22 C9.66 22 10.32 22 11 22 C12.79840318 15.64564211 13.50584892 9.58868105 14 3 C10.04 2.67 6.08 2.34 2 2 C2 4.97 2 7.94 2 11 C1.01 11.495 1.01 11.495 0 12 C0 8.04 0 4.08 0 0 Z " fill="#EF151D" transform="translate(679,522)"/>
<path d="M0 0 C2 2 2 2 3.25 5.3125 C4.95316058 9.40008539 7.30232637 11.51118121 11 14 C16.50665754 15.94149406 21.66635884 16.401781 27.4375 16.625 C28.26443359 16.66367187 29.09136719 16.70234375 29.94335938 16.7421875 C31.96191073 16.83553092 33.98092331 16.91880961 36 17 C34 19 34 19 30.98828125 19.23046875 C11.80477786 19.00621951 11.80477786 19.00621951 4 12 C1.10874111 7.97233721 0 4.97719436 0 0 Z " fill="#F1141D" transform="translate(628,529)"/>
<path d="M0 0 C0.70688965 0.00547852 1.4137793 0.01095703 2.14208984 0.01660156 C3.22369385 0.02288574 3.22369385 0.02288574 4.32714844 0.02929688 C12.61407039 0.20360224 20.18368383 1.81582814 26.64208984 7.32910156 C29.05305498 11.10628028 30.03708979 13.85243546 29.64208984 18.32910156 C27.64079766 16.32780938 26.91149898 14.9310549 25.76708984 12.39160156 C23.48349539 7.76585895 21.59300591 6.0032401 16.65771484 4.29785156 C11.90096319 2.9734057 7.11520496 2.87379885 2.20458984 2.70410156 C1.28226563 2.66542969 0.35994141 2.62675781 -0.59033203 2.58691406 C-2.84600159 2.49341481 -5.10167931 2.40766247 -7.35791016 2.32910156 C-4.88286085 -0.14594775 -3.38583254 0.04760686 0 0 Z " fill="#EF161D" transform="translate(898.35791015625,472.6708984375)"/>
<path d="M0 0 C0.33 0 0.66 0 1 0 C2.66213964 41.94250233 2.66213964 41.94250233 1 49 C0.67 49 0.34 49 0 49 C-1.09632879 21.90376745 -1.09632879 21.90376745 -1.125 9.875 C-1.12951172 9.09535889 -1.13402344 8.31571777 -1.13867188 7.51245117 C-1.12429465 2.2485893 -1.12429465 2.2485893 0 0 Z " fill="#EE121A" transform="translate(835,468)"/>
<path d="M0 0 C0.66 0 1.32 0 2 0 C2.79126827 14.09211114 3.15522366 27.92404399 2 42 C1.67 42 1.34 42 1 42 C-0.06904036 32.9306328 -0.11830883 23.9261867 -0.0625 14.8125 C-0.05747088 13.36914219 -0.05291049 11.92578267 -0.04882812 10.48242188 C-0.0379438 6.98824495 -0.0207585 3.49413388 0 0 Z " fill="#ED111A" transform="translate(834,424)"/>
<path d="M0 0 C8.60469494 2.60320875 17.12226265 7.07266669 23 14 C22.01 14 21.02 14 20 14 C19.67 14.66 19.34 15.32 19 16 C18.13117188 15.25234375 17.26234375 14.5046875 16.3671875 13.734375 C15.20327021 12.73941344 14.03919951 11.74463132 12.875 10.75 C12.30523437 10.25886719 11.73546875 9.76773437 11.1484375 9.26171875 C8.37945094 6.90178702 5.62278423 4.68785971 2.5703125 2.703125 C1.72210938 2.14109375 0.87390625 1.5790625 0 1 C0 0.67 0 0.34 0 0 Z " fill="#FBEF1C" transform="translate(267,466)"/>
<path d="M0 0 C7.34685729 0.61223811 13.26373007 2.75135491 18.3125 8.3125 C23.01229694 14.33131351 24.39395832 19.514792 24 27 C23.67 27 23.34 27 23 27 C22.34 23.37 21.68 19.74 21 16 C20.34 16 19.68 16 19 16 C18.62875 15.113125 18.2575 14.22625 17.875 13.3125 C13.7252792 5.98132659 7.63191913 3.6998291 0 1 C0 0.67 0 0.34 0 0 Z " fill="#EE141C" transform="translate(670,464)"/>
<path d="M0 0 C0 0.66 0 1.32 0 2 C-0.65226563 2.15855469 -1.30453125 2.31710937 -1.9765625 2.48046875 C-8.94929006 4.34191962 -13.12772487 6.38306095 -17.6875 12.125 C-19.71955859 16.57617595 -20.82946962 21.25976704 -22 26 C-22.33 26 -22.66 26 -23 26 C-23.40185382 19.57033886 -22.53169761 14.29522546 -18.5234375 9.078125 C-13.6593103 3.8808384 -7.48707139 -0.93588392 0 0 Z " fill="#F11018" transform="translate(736,501)"/>
<path d="M0 0 C0.66 0.66 1.32 1.32 2 2 C-8.56 2 -19.12 2 -30 2 C-29.67 1.34 -29.34 0.68 -29 0 C-19.64403382 -1.485074 -9.33333531 -1.9025645 0 0 Z " fill="#F1151E" transform="translate(915,462)"/>
<path d="M0 0 C0.86560547 -0.00257813 1.73121094 -0.00515625 2.62304688 -0.0078125 C3.52474609 -0.00007813 4.42644531 0.00765625 5.35546875 0.015625 C6.24556641 0.00789063 7.13566406 0.00015625 8.05273438 -0.0078125 C12.9477952 0.00670214 16.95226023 0.35346211 21.54296875 2.265625 C21.54296875 2.595625 21.54296875 2.925625 21.54296875 3.265625 C11.97296875 2.935625 2.40296875 2.605625 -7.45703125 2.265625 C-4.32424688 0.17710209 -3.57110993 0.01027552 0 0 Z " fill="#F0141C" transform="translate(744.45703125,498.734375)"/>
<path d="M0 0 C4.34120232 0.48235581 6.25257118 1.61150446 9 5 C12.16599604 10.1071907 12.3794579 14.06704288 12.1875 19.875 C12.17396484 20.65875 12.16042969 21.4425 12.14648438 22.25 C12.11141789 24.16696782 12.05762072 26.08357751 12 28 C11.67 28 11.34 28 11 28 C10.90203125 26.85402344 10.8040625 25.70804687 10.703125 24.52734375 C10.55293781 22.99731172 10.40184795 21.4673681 10.25 19.9375 C10.188125 19.18533203 10.12625 18.43316406 10.0625 17.65820312 C9.49272704 12.17413834 8.12538029 8.56562084 5 4 C2.39975951 2.13689678 2.39975951 2.13689678 0 1 C0 0.67 0 0.34 0 0 Z " fill="#F1151D" transform="translate(503,476)"/>
<path d="M0 0 C0 0.33 0 0.66 0 1 C-1.08796875 0.97679687 -2.1759375 0.95359375 -3.296875 0.9296875 C-12.08725808 0.80137537 -20.35943873 1.13537021 -29 3 C-22.78908945 -4.53150283 -8.26560081 -2.75520027 0 0 Z " fill="#F0141C" transform="translate(509,463)"/>
<path d="M0 0 C7.04125527 0.25604565 11.70372379 2.30786176 17 7 C19.84668113 10.50869999 22 13.4081734 22 18 C21.34 18 20.68 18 20 18 C19.505 16.80375 19.01 15.6075 18.5 14.375 C15.29217818 7.9932418 10.05544836 4.62397411 3.5 2.125 C2.345 1.75375 1.19 1.3825 0 1 C0 0.67 0 0.34 0 0 Z " fill="#F0151D" transform="translate(404,464)"/>
<path d="M0 0 C2.2063712 2.2063712 2.42446672 3.18552953 3.1875 6.125 C5.20443461 12.35642484 8.6970233 17.13583986 14.45703125 20.38671875 C16.61608164 21.35574137 18.7634144 22.22911335 21 23 C18.39465432 23.99651471 17.28211942 24.10707503 14.6328125 23.1015625 C8.41235528 19.43905031 3.95096992 15.71373083 1 9 C0.30095767 5.9035709 0.10144389 3.19548242 0 0 Z " fill="#EE131C" transform="translate(614,532)"/>
<path d="M0 0 C7.92 3.96 7.92 3.96 16 8 C16 8.99 16 9.98 16 11 C12.02886584 11 9.58451345 9.21168167 6.3125 7.1875 C5.70599609 6.83107422 5.09949219 6.47464844 4.47460938 6.10742188 C2.73828125 5.04296875 2.73828125 5.04296875 0 3 C0 2.01 0 1.02 0 0 Z " fill="#F9DA20" transform="translate(230,488)"/>
<path d="M0 0 C5.28 0.33 10.56 0.66 16 1 C15.67 2.98 15.34 4.96 15 7 C14.67 5.68 14.34 4.36 14 3 C12.22844346 3.11429397 10.45773771 3.24183037 8.6875 3.375 C7.20830078 3.47941406 7.20830078 3.47941406 5.69921875 3.5859375 C2.78471567 3.83865472 2.78471567 3.83865472 0 6 C0 4.02 0 2.04 0 0 Z " fill="#F0161D" transform="translate(414,527)"/>
<path d="M0 0 C0 0.33 0 0.66 0 1 C-1.30195312 1.10957031 -2.60390625 1.21914063 -3.9453125 1.33203125 C-5.67193346 1.49155601 -7.39849291 1.65174751 -9.125 1.8125 C-9.9809375 1.88275391 -10.836875 1.95300781 -11.71875 2.02539062 C-16.80548655 2.51449991 -20.48516771 3.4331561 -25 6 C-25.66 6 -26.32 6 -27 6 C-26.2265625 4.078125 -26.2265625 4.078125 -25 2 C-16.91411672 -0.78823561 -8.4455352 -0.18652716 0 0 Z " fill="#F1161E" transform="translate(760,510)"/>
<path d="M0 0 C-0.61488281 0.31453125 -1.22976563 0.6290625 -1.86328125 0.953125 C-2.67152344 1.38109375 -3.47976563 1.8090625 -4.3125 2.25 C-5.11300781 2.66765625 -5.91351562 3.0853125 -6.73828125 3.515625 C-10.54110323 6.01143217 -12.20999319 9.02855198 -13.6875 13.25 C-14.120625 14.4875 -14.55375 15.725 -15 17 C-15.33 17 -15.66 17 -16 17 C-15.88342757 10.47194377 -14.28128783 7.44947178 -9.88671875 2.6640625 C-6.50419869 -0.31927817 -4.39288371 -1.56888704 0 0 Z " fill="#EF131A" transform="translate(734,466)"/>
<path d="M0 0 C5.291375 0.4150098 8.26339044 1.16240099 12 5 C15.77766429 10.30914982 16.45365686 13.5353897 16 20 C15.67 20 15.34 20 15 20 C14.896875 18.948125 14.79375 17.89625 14.6875 16.8125 C14.01750713 13.09708498 13.03743581 11.10044579 11 8 C11 7.34 11 6.68 11 6 C7.41247258 4.13448574 3.72187807 2.57464072 0 1 C0 0.67 0 0.34 0 0 Z " fill="#F2151D" transform="translate(765,512)"/>
<path d="M0 0 C4.46818191 0.51064936 6.82128234 1.82128234 10 5 C13.35202005 9.83058231 15.7761987 13.94565018 15 20 C13.99901302 18.0287581 13.02670802 16.06106424 12.140625 14.03515625 C9.84761942 8.95635004 7.45953896 6.32093327 3 3 C1.98319689 2.01709032 0.97261781 1.02665213 0 0 Z " fill="#EF131C" transform="translate(572,465)"/>
<path d="M0 0 C4.97003138 1.24250784 7.20013733 2.7002109 10 7 C12.13492839 11.05636393 12.17820671 14.45572879 12 19 C11.34 18.67 10.68 18.34 10 18 C9.40234375 16.07421875 9.40234375 16.07421875 8.9375 13.6875 C8.70353516 12.51767578 8.70353516 12.51767578 8.46484375 11.32421875 C8.16150831 9.80754155 7.8593694 8.29062441 7.55859375 6.7734375 C7.16170029 4.81018532 7.16170029 4.81018532 5.125 3.9375 C4.42375 3.628125 3.7225 3.31875 3 3 C1.25 1.375 1.25 1.375 0 0 Z " fill="#F1151D" transform="translate(668,476)"/>
<path d="M0 0 C0 0.66 0 1.32 0 2 C-8.91 2.99 -8.91 2.99 -18 4 C-18 3.34 -18 2.68 -18 2 C-11.84629161 0.176679 -6.40353322 -0.2361959 0 0 Z " fill="#F1171F" transform="translate(561,461)"/>
<path d="M0 0 C-0.88751953 0.43699219 -0.88751953 0.43699219 -1.79296875 0.8828125 C-7.13703234 3.65509997 -10.42934224 6.16911008 -14 11 C-14.98290968 12.01680311 -15.97334787 13.02738219 -17 14 C-16.4902277 9.53949235 -15.1276485 7.20784461 -12 4 C-4.61731982 -1.66965583 -4.61731982 -1.66965583 0 0 Z " fill="#F0141B" transform="translate(881,466)"/>
<path d="M0 0 C0.99 0.33 1.98 0.66 3 1 C2.21625 1.721875 1.4325 2.44375 0.625 3.1875 C-3.36656821 7.46418023 -4.20362702 11.2926603 -5 17 C-5.66 17 -6.32 17 -7 17 C-7.77500082 10.95499361 -5.22548189 6.88709378 -2 2 C-1.34 1.34 -0.68 0.68 0 0 Z " fill="#F3141C" transform="translate(621,471)"/>
<path d="M0 0 C0.99 1.0828125 0.99 1.0828125 2 2.1875 C4.76771207 4.97900329 7.85327492 6.90431243 11.23046875 8.88671875 C13 10 13 10 15 12 C8.82475589 11.62948535 6.28585333 10.18618232 2 6 C0 3 0 3 0 0 Z " fill="#F1151C" transform="translate(363,534)"/>
<path d="M0 0 C5.77378925 0.4811491 9.95859836 2.18467181 15 5 C15 5.66 15 6.32 15 7 C13.58208592 6.54554036 12.16571954 6.08625056 10.75 5.625 C9.96109375 5.36976563 9.1721875 5.11453125 8.359375 4.8515625 C6 4 6 4 3.890625 2.8984375 C1.89727071 1.78539547 1.89727071 1.78539547 -1 2 C-0.67 1.34 -0.34 0.68 0 0 Z " fill="#F73328" transform="translate(251,537)"/>
<path d="M0 0 C0.66 0 1.32 0 2 0 C1.71253906 0.56847656 1.42507813 1.13695312 1.12890625 1.72265625 C-2.85431394 9.55041452 -2.85431394 9.55041452 -5 18 C-5.66 18 -6.32 18 -7 18 C-6.3177893 11.31433516 -4.65323097 5.05785975 0 0 Z " fill="#F0151D" transform="translate(474,481)"/>
<path d="M0 0 C-1.45449401 1.0055761 -2.91372443 2.00430435 -4.375 3 C-5.59316406 3.8353125 -5.59316406 3.8353125 -6.8359375 4.6875 C-9 6 -9 6 -11 6 C-11.28875 6.804375 -11.5775 7.60875 -11.875 8.4375 C-13 11 -13 11 -15 12 C-14.51696726 7.68986172 -13.3982201 5.9764837 -10.0625 3.25 C-9.35222656 2.65703125 -8.64195312 2.0640625 -7.91015625 1.453125 C-4.80721084 -0.90739789 -3.68501584 -1.10550475 0 0 Z " fill="#F0141C" transform="translate(541,466)"/>
<path d="M0 0 C6.19861907 -0.67012098 11.35623611 1.75052827 17 4 C16.67 4.66 16.34 5.32 16 6 C14.26982492 5.54548816 12.54090123 5.08621143 10.8125 4.625 C9.84957031 4.36976563 8.88664062 4.11453125 7.89453125 3.8515625 C5.17789793 3.05233704 2.60862825 2.0968638 0 1 C0 0.67 0 0.34 0 0 Z " fill="#F72F2A" transform="translate(269,545)"/>
<path d="M0 0 C3.65033406 0.8043109 6.44051499 1.99102061 9.6875 3.8125 C9.3575 4.4725 9.0275 5.1325 8.6875 5.8125 C3.7375 4.4925 -1.2125 3.1725 -6.3125 1.8125 C-3.3125 -0.1875 -3.3125 -0.1875 0 0 Z " fill="#FBE12D" transform="translate(210.3125,442.1875)"/>
<path d="M0 0 C0.33 0.99 0.66 1.98 1 3 C-0.77442409 5.99816485 -2.53540571 8.53540571 -5 11 C-7.32275177 11.40047444 -9.65739357 11.7397104 -12 12 C-10.50415516 9.00831032 -7.93920694 8.46960347 -5 7 C-2.53244882 4.97308296 -1.30135762 2.90302854 0 0 Z " fill="#F3151D" transform="translate(413,534)"/>
<path d="M0 0 C5.97438698 0.55575693 8.90586579 2.69645236 12.875 7.0625 C13.431875 8.0215625 13.431875 8.0215625 14 9 C13.67 9.99 13.34 10.98 13 12 C12.64808594 11.54109375 12.29617188 11.0821875 11.93359375 10.609375 C8.35455285 6.16127195 5.10527523 3.55263762 0 1 C0 0.67 0 0.34 0 0 Z " fill="#F0121B" transform="translate(510,464)"/>
<path d="M0 0 C0.66 0 1.32 0 2 0 C0.76549745 4.93801019 -0.62939073 7.31803522 -5 10 C-8.3125 10.75 -8.3125 10.75 -11 11 C-10.46375 10.608125 -9.9275 10.21625 -9.375 9.8125 C-3.56910142 5.78913422 -3.56910142 5.78913422 0 0 Z " fill="#F0131B" transform="translate(677,535)"/>
<path d="M0 0 C1.51400391 0.01740234 1.51400391 0.01740234 3.05859375 0.03515625 C4.07050781 0.04417969 5.08242188 0.05320312 6.125 0.0625 C7.29869141 0.07990234 7.29869141 0.07990234 8.49609375 0.09765625 C8.49609375 0.42765625 8.49609375 0.75765625 8.49609375 1.09765625 C5.19609375 1.09765625 1.89609375 1.09765625 -1.50390625 1.09765625 C-1.44203125 2.19078125 -1.38015625 3.28390625 -1.31640625 4.41015625 C-1.50390625 8.09765625 -1.50390625 8.09765625 -3.015625 9.828125 C-3.50675781 10.24707031 -3.99789062 10.66601562 -4.50390625 11.09765625 C-4.36347748 9.45135297 -4.21641296 7.80561446 -4.06640625 6.16015625 C-3.98519531 5.24363281 -3.90398438 4.32710937 -3.8203125 3.3828125 C-3.37885871 0.19453512 -3.24881473 0.12670884 0 0 Z " fill="#EF151C" transform="translate(930.50390625,527.90234375)"/>
<path d="M0 0 C0.66 0 1.32 0 2 0 C3.80230168 3.82989106 4.19622241 6.78121808 4 11 C3.34 10.67 2.68 10.34 2 10 C2 9.34 2 8.68 2 8 C1.01 7.67 0.02 7.34 -1 7 C-1 6.34 -1 5.68 -1 5 C-0.34 5 0.32 5 1 5 C0.67 3.35 0.34 1.7 0 0 Z " fill="#F83C2B" transform="translate(322,517)"/>
<path d="M0 0 C2.19458816 2.19458816 2.60806985 3.45683722 3.5 6.375 C4.43708091 9.42051297 5.50725068 12.18179223 7 15 C3.61571159 13.9497036 2.97132891 12.94675369 1.25 9.75 C0.06488343 6.19465028 -0.27096425 3.70317814 0 0 Z " fill="#F0131C" transform="translate(862,532)"/>
<path d="M0 0 C1.65322266 0.01740234 1.65322266 0.01740234 3.33984375 0.03515625 C4.99693359 0.04869141 4.99693359 0.04869141 6.6875 0.0625 C7.54214844 0.07410156 8.39679688 0.08570313 9.27734375 0.09765625 C4.27734375 2.59765625 4.27734375 2.59765625 -0.72265625 5.09765625 C-1.05265625 4.10765625 -1.38265625 3.11765625 -1.72265625 2.09765625 C-2.38265625 1.76765625 -3.04265625 1.43765625 -3.72265625 1.09765625 C-2.72265625 0.09765625 -2.72265625 0.09765625 0 0 Z " fill="#F83A29" transform="translate(201.72265625,450.90234375)"/>
<path d="M0 0 C0.33 0 0.66 0 1 0 C1.34463353 5.74389224 1.34449896 10.04518673 -2 15 C-2.99 15.33 -3.98 15.66 -5 16 C-4.71125 15.443125 -4.4225 14.88625 -4.125 14.3125 C-1.79269961 9.51832698 -0.62684886 5.32821535 0 0 Z " fill="#F0161E" transform="translate(941,531)"/>
<path d="M0 0 C4.8274799 1.41292095 8.7162359 3.42974154 13 6 C10 7 10 7 8.1875 6.3125 C5.38698311 4.63218987 2.6701131 2.88121605 0 1 C0 0.67 0 0.34 0 0 Z " fill="#F7E02F" transform="translate(267,466)"/>
<path d="M0 0 C4.84688192 0.78175515 9.3766367 2.39844278 14 4 C14 4.33 14 4.66 14 5 C8.67061191 4.66328485 4.37173367 4.384568 0 1 C0 0.67 0 0.34 0 0 Z " fill="#EF151D" transform="translate(360,552)"/>
<path d="M0 0 C0.99 0.33 1.98 0.66 3 1 C0.33333333 3.66666667 -2.33333333 6.33333333 -5 9 C-5.66 8.67 -6.32 8.34 -7 8 C-3.375 2.25 -3.375 2.25 0 0 Z " fill="#F2151C" transform="translate(476,467)"/>
<path d="M0 0 C3.89086767 0.57642484 6.20617303 2.28168187 9 5 C9.8125 7.75 9.8125 7.75 10 10 C6.66666667 6.66666667 3.33333333 3.33333333 0 0 Z " fill="#EC151D" transform="translate(927,467)"/>
<path d="M0 0 C2.26171875 0.4609375 2.26171875 0.4609375 4.6875 1.375 C5.49574219 1.67148437 6.30398437 1.96796875 7.13671875 2.2734375 C7.75160156 2.51320313 8.36648437 2.75296875 9 3 C8.34 3.66 7.68 4.32 7 5 C3.7 4.01 0.4 3.02 -3 2 C-2.01 1.34 -1.02 0.68 0 0 Z " fill="#F6863C" transform="translate(222,450)"/>
<path d="M0 0 C-1.4317616 0.69937202 -2.87067032 1.38412718 -4.3125 2.0625 C-5.51326172 2.63677734 -5.51326172 2.63677734 -6.73828125 3.22265625 C-9 4 -9 4 -12 3 C-7.79239174 -0.45624965 -5.25129814 -1.44410699 0 0 Z " fill="#F0141C" transform="translate(489,476)"/>
<path d="M0 0 C1.66832577 2.50248865 2.62381674 4.41149187 3.625 7.1875 C4.01558594 8.26064453 4.01558594 8.26064453 4.4140625 9.35546875 C4.60742188 9.89816406 4.80078125 10.44085937 5 11 C4.01 11 3.02 11 2 11 C0.19769832 7.17010894 -0.19622241 4.21878192 0 0 Z " fill="#F11920" transform="translate(348,532)"/>
<path d="M0 0 C3.91211733 1.15585285 6.8745041 2.35534962 10 5 C6.28111761 4.49287967 3.26545761 3.88391785 0 2 C0 1.34 0 0.68 0 0 Z " fill="#F43526" transform="translate(247,514)"/>
<path d="M0 0 C0.66 0 1.32 0 2 0 C1.34 2.31 0.68 4.62 0 7 C-1.32 6.34 -2.64 5.68 -4 5 C-2.71937515 3.2925002 -1.38232443 1.62626404 0 0 Z " fill="#F8BD26" transform="translate(327,550)"/>
<path d="M0 0 C3.375 -0.1875 3.375 -0.1875 7 0 C7.66 0.99 8.32 1.98 9 3 C2.84765625 2.4140625 2.84765625 2.4140625 1 2 C0.67 1.34 0.34 0.68 0 0 Z " fill="#F73228" transform="translate(289,551)"/>
<path d="M0 0 C0.99 0.33 1.98 0.66 3 1 C1.02579865 3.52259061 0.03254358 3.9929808 -3.1875 4.6875 C-4.5796875 4.8421875 -4.5796875 4.8421875 -6 5 C-5.195625 4.360625 -4.39125 3.72125 -3.5625 3.0625 C-1.7249496 1.59396498 -1.7249496 1.59396498 0 0 Z " fill="#F42F26" transform="translate(320,525)"/>
<path d="M0 0 C1.32 0.33 2.64 0.66 4 1 C-0.455 3.97 -0.455 3.97 -5 7 C-2.36363636 1.72727273 -2.36363636 1.72727273 0 0 Z " fill="#ED161C" transform="translate(359,467)"/>
<path d="M0 0 C3.96 1.98 3.96 1.98 8 4 C7.01 4.66 6.02 5.32 5 6 C2.5 4.6875 2.5 4.6875 0 3 C0 2.01 0 1.02 0 0 Z " fill="#F8CA28" transform="translate(230,488)"/>
<path d="M0 0 C0.66 0 1.32 0 2 0 C1.67 0.66 1.34 1.32 1 2 C0.67 1.34 0.34 0.68 0 0 Z " fill="#FB9C30" transform="translate(302,556)"/>
<path d="M0 0 C0.99 0.495 0.99 0.495 2 1 C1.01 1.495 1.01 1.495 0 2 C0 1.34 0 0.68 0 0 Z " fill="#F8BA36" transform="translate(204,445)"/>
<path d="" fill="#FB9A2F" transform="translate(0,0)"/>
<path d="M0 0 C2 1 2 1 2 1 Z " fill="#F3282F" transform="translate(497,477)"/>
<path d="M0 0 C2 1 2 1 2 1 Z " fill="#F42930" transform="translate(489,477)"/>
<path d="" fill="#7F807E" transform="translate(0,0)"/>
<path d="" fill="#F7D134" transform="translate(0,0)"/>
<path d="" fill="#E53638" transform="translate(0,0)"/>
<path d="" fill="#E43D3C" transform="translate(0,0)"/>
<path d="" fill="#FAA32F" transform="translate(0,0)"/>
<path d="" fill="#F99934" transform="translate(0,0)"/>
<path d="" fill="#F32B30" transform="translate(0,0)"/>
<path d="" fill="#F02C31" transform="translate(0,0)"/>
<path d="" fill="#F22D32" transform="translate(0,0)"/>
<path d="" fill="#FB9533" transform="translate(0,0)"/>
<path d="" fill="#F22E33" transform="translate(0,0)"/>
<path d="" fill="#F02E33" transform="translate(0,0)"/>
<path d="" fill="#FD9932" transform="translate(0,0)"/>
<path d="" fill="#FA9632" transform="translate(0,0)"/>
<path d="" fill="#F42B2F" transform="translate(0,0)"/>
<path d="" fill="#F65031" transform="translate(0,0)"/>
<path d="" fill="#F22A30" transform="translate(0,0)"/>
<path d="" fill="#F32A30" transform="translate(0,0)"/>
<path d="" fill="#F22A31" transform="translate(0,0)"/>
<path d="" fill="#F32D34" transform="translate(0,0)"/>
<path d="" fill="#F22C30" transform="translate(0,0)"/>
<path d="" fill="#F32931" transform="translate(0,0)"/>
<path d="" fill="#F22A31" transform="translate(0,0)"/>
<path d="" fill="#F15A33" transform="translate(0,0)"/>
<path d="" fill="#F3AB35" transform="translate(0,0)"/>
<path d="" fill="#F46137" transform="translate(0,0)"/>
<path d="" fill="#FA8432" transform="translate(0,0)"/>
<path d="" fill="#F42C34" transform="translate(0,0)"/>
<path d="" fill="#F02C32" transform="translate(0,0)"/>
<path d="" fill="#F22A30" transform="translate(0,0)"/>
<path d="" fill="#F72A31" transform="translate(0,0)"/>
<path d="" fill="#F22C32" transform="translate(0,0)"/>
<path d="" fill="#F12D33" transform="translate(0,0)"/>
<path d="" fill="#F32A32" transform="translate(0,0)"/>
<path d="" fill="#E33335" transform="translate(0,0)"/>
<path d="" fill="#EF2C33" transform="translate(0,0)"/>
<path d="" fill="#F12C33" transform="translate(0,0)"/>
<path d="" fill="#F7963C" transform="translate(0,0)"/>
<path d="" fill="#F12C33" transform="translate(0,0)"/>
<path d="" fill="#FA973C" transform="translate(0,0)"/>
<path d="" fill="#F8923B" transform="translate(0,0)"/>
<path d="" fill="#F8AE3B" transform="translate(0,0)"/>
<path d="" fill="#F6C03C" transform="translate(0,0)"/>
<path d="" fill="#ED3136" transform="translate(0,0)"/>
</svg>
